HIERARCHY
ROOT hip
{
	OFFSET 0.000000 0.000000 0.000000 
	CHANNELS 6 Xposition Yposition Zposition Xrotation Zrotation Yrotation
	JOINT abdomen
	{
		OFFSET 0.000000 3.402643 0.000000 
		CHANNELS 3 Xrotation Zrotation Yrotation
		JOINT chest
		{
			OFFSET 0.000000 8.438565 -0.680529 
			CHANNELS 3 Xrotation Zrotation Yrotation
			JOINT neck
			{
				OFFSET 0.000000 10.207942 -0.272212 
				CHANNELS 3 Xrotation Zrotation Yrotation
				JOINT head
				{
					OFFSET 0.000000 3.130431 0.000000 
					CHANNELS 3 Xrotation Zrotation Yrotation
					End Site
					{
						OFFSET 0.000000 3.130435 0.000000 
					}
				}
			}
			JOINT lCollar
			{
				OFFSET 3.470700 6.669187 -0.816635 
				CHANNELS 3 Yrotation Zrotation Xrotation
				JOINT lShldr
				{
					OFFSET 3.198488 0.000000 0.000000 
					CHANNELS 3 Zrotation Yrotation Xrotation
					JOINT lForeArm
					{
						OFFSET 10.139888 0.000000 0.000000 
						CHANNELS 3 Yrotation Zrotation Xrotation
						JOINT lHand
						{
							OFFSET 8.370511 0.000000 0.000000 
							CHANNELS 3 Zrotation Yrotation Xrotation
							End Site
							{
								OFFSET 4.083176 0.000000 0.000000 
							}
						}
					}
				}
			}
			JOINT rCollar
			{
				OFFSET -3.470700 6.669187 -0.816635 
				CHANNELS 3 Yrotation Zrotation Xrotation
				JOINT rShldr
				{
					OFFSET -3.198488 0.000000 0.000000 
					CHANNELS 3 Zrotation Yrotation Xrotation
					JOINT rForeArm
					{
						OFFSET -10.139888 0.000000 0.000000 
						CHANNELS 3 Yrotation Zrotation Xrotation
						JOINT rHand
						{
							OFFSET -8.370511 0.000000 0.000000 
							CHANNELS 3 Zrotation Yrotation Xrotation
							End Site
							{
								OFFSET -4.083176 0.000000 0.000000 
							}
						}
					}
				}
			}
		}
	}
	JOINT lThigh
	{
		OFFSET 5.308129 -1.633274 1.361059 
		CHANNELS 3 Xrotation Zrotation Yrotation
		JOINT lShin
		{
			OFFSET -2.041588 -20.007561 0.000000 
			CHANNELS 3 Xrotation Zrotation Yrotation
			JOINT lFoot
			{
				OFFSET 0.000000 -19.190928 -1.224953 
				CHANNELS 3 Xrotation Yrotation Zrotation
				End Site
				{
					OFFSET 0.000000 -2.449906 4.627600 
				}
			}
		}
	}
	JOINT rThigh
	{
		OFFSET -5.308129 -1.633274 1.361059 
		CHANNELS 3 Xrotation Zrotation Yrotation
		JOINT rShin
		{
			OFFSET 2.041588 -20.007561 0.000000 
			CHANNELS 3 Xrotation Zrotation Yrotation
			JOINT rFoot
			{
				OFFSET 0.000000 -19.190928 -1.224953 
				CHANNELS 3 Xrotation Yrotation Zrotation
				End Site
				{
					OFFSET 0.000000 -2.449906 4.627600 
				}
			}
		}
	}
}
MOTION
Frames: 18
Frame Time: 0.033333
-99.234413 51.319313 29.156372 -3.770253 1.120617 85.873436 0.000000 0.000000 0.000000 4.426679 -2.054405 -0.930738 8.032921 -1.288136 -2.428240 -0.848755 -7.746264 1.079227 -7.922091 0.948274 4.471698 -70.306274 -5.717206 15.662319 -40.958439 -9.808047 16.687902 11.356355 9.810679 -2.945984 3.718537 5.427653 4.435677 60.511555 -3.434561 15.724441 37.583553 9.160167 17.023561 -9.638491 -17.033089 -2.536922 2.028576 3.062183 7.420157 6.648098 -2.880455 36.126976 -7.927956 -0.105449 1.592559 -21.105087 -6.384458 -1.524521 11.415179 3.163922 -10.811220 13.363768 0.811633 7.082154 
-98.882423 51.277412 29.196264 -3.711576 1.062221 86.034630 0.000000 0.000000 0.000000 4.591995 -1.752174 -1.244456 7.958676 -1.262988 -2.592749 -0.961153 -7.917178 1.114178 -8.392409 1.263260 4.651446 -70.636536 -5.404321 16.614752 -40.895203 -10.428829 14.996481 11.183167 10.190041 -2.922961 3.604186 5.606196 4.550955 60.423691 -4.163123 15.356369 37.506752 8.970446 17.410761 -8.902248 -17.344101 -2.603378 2.144142 3.001489 7.361098 7.136109 -2.752651 36.170895 -8.400135 -0.066937 1.000220 -21.636217 -6.375955 -1.320297 9.536334 3.473641 -10.243272 13.883418 0.905841 7.528992 
-98.481499 51.197746 29.252518 -3.652735 0.838138 86.255096 0.000000 0.000000 0.000000 4.630393 -1.450331 -1.553209 7.814402 -1.073627 -2.886875 -0.857474 -8.526759 1.218917 -8.779064 1.472234 4.711683 -70.791428 -4.513746 16.980848 -41.275089 -10.581593 15.260512 10.401920 10.134968 -2.971710 3.447682 6.067050 4.547533 59.808891 -5.060820 15.314195 37.686935 8.975956 17.731672 -8.755546 -17.627676 -2.603226 1.918792 3.049274 7.315462 8.188386 -2.671116 35.835232 -9.179535 -0.006443 0.136989 -22.271832 -6.337341 -1.053541 7.790155 3.661979 -10.082365 14.388502 0.964065 7.845625 
-98.032867 51.164524 29.322863 -3.398505 0.360693 86.677795 0.000000 0.000000 0.000000 4.522573 -1.255844 -1.954986 7.720870 -0.977838 -3.330966 -1.221672 -9.210996 1.363152 -9.110769 1.620808 4.619936 -71.086510 -3.462678 17.042889 -41.363808 -10.624562 15.022224 10.430366 10.411095 -2.948185 3.024085 6.270952 4.407773 59.529293 -5.748327 15.145936 37.508713 8.914769 18.127813 -8.732691 -17.675055 -2.612064 2.176763 2.851469 7.159769 7.788118 -2.622297 35.726887 -9.393949 0.025984 -0.289481 -22.739876 -6.551641 -0.924743 5.720151 3.854777 -10.047828 14.964587 1.057333 8.186363 
-97.490479 51.135201 29.442038 -3.349620 0.146234 87.188705 0.000000 0.000000 0.000000 4.609964 -0.915000 -2.310251 7.843165 -0.729678 -3.911632 -1.754659 -10.119108 1.437784 -9.415251 1.642612 4.719018 -71.176407 -2.283504 16.913260 -41.373135 -10.618835 14.756381 10.455629 10.863235 -2.909311 2.420782 6.589891 4.475871 59.382492 -6.508497 14.846275 37.392750 8.723104 18.394026 -8.904327 -17.569447 -2.590660 3.317100 2.897854 7.174390 6.499681 -2.524814 35.598000 -9.249207 0.092443 -1.098268 -22.468603 -6.484083 -0.764794 3.455013 3.970898 -9.996755 15.225236 1.088230 8.273846 
-96.840881 51.085876 29.588140 -3.330078 0.019498 87.557457 0.000000 0.000000 0.000000 4.677932 -0.525587 -2.533329 8.111289 -0.626930 -4.419531 -2.619288 -10.694886 1.327174 -9.319895 1.352226 4.796302 -70.770737 -1.060371 16.742001 -41.298206 -10.598681 15.700966 9.743877 10.255416 -3.000506 2.053270 6.954443 4.527034 59.216484 -7.494336 14.536458 37.378899 8.544318 18.933949 -9.759597 -17.462616 -2.494362 4.341053 3.035203 7.293055 5.892271 -2.512095 34.971817 -9.537502 0.158261 -1.822662 -21.834995 -6.366984 -0.721762 1.201068 4.122375 -10.320297 15.626940 1.123572 8.346839 
-96.105331 51.054039 29.744816 -3.349642 -0.253472 88.579292 0.000000 0.000000 0.000000 4.580078 -0.009734 -3.047655 8.368466 -0.420786 -5.230257 -3.364517 -11.164614 1.089573 -9.367204 1.224029 4.734087 -70.478325 -0.029436 16.791353 -40.549500 -10.812141 15.921325 10.173098 10.618242 -2.949819 1.360541 7.346269 4.423227 59.220173 -8.629982 13.887163 37.294262 8.356046 18.503761 -9.945825 -17.044836 -2.502682 5.646751 3.239319 7.361593 4.556189 -2.406544 33.768959 -9.580010 0.213572 -2.389737 -20.793221 -6.404063 -1.059851 -1.160443 4.420897 -11.763874 15.995350 1.131812 8.167210 
-95.212723 50.984951 29.959755 -3.652424 -0.380086 89.438324 0.000000 0.000000 0.000000 4.443631 0.632858 -3.329622 8.499665 0.079323 -5.946562 -3.744447 -11.865918 0.838179 -9.345737 1.824173 4.718663 -70.682510 0.967474 16.841061 -39.190426 -10.884131 17.364195 10.542774 10.996637 -2.896261 0.721562 8.055844 4.324890 59.092419 -10.014894 13.543048 37.575775 8.222654 17.873989 -10.017063 -17.245682 -2.473475 7.319349 3.865940 7.822063 3.268438 -2.396811 32.314430 -9.758748 0.297183 -3.332870 -20.115412 -5.946836 -1.179731 -1.464723 4.462327 -13.711270 16.090200 1.153557 8.178425 
-94.148460 50.880119 30.200493 -3.984408 -0.233809 90.582695 0.000000 0.000000 0.000000 4.210178 1.363500 -3.766620 8.843514 0.299090 -6.660835 -4.200259 -11.788211 0.285003 -9.671326 2.049959 4.605532 -70.437073 2.572918 16.899271 -38.581806 -11.040015 17.470352 11.147807 11.068722 -2.848954 0.239619 8.584705 4.135331 59.129631 -11.636419 13.369411 37.595959 8.286527 16.645117 -10.415348 -17.077902 -2.439776 9.157002 4.589341 8.321951 2.459003 -2.251545 30.471369 -10.227582 0.407231 -4.515975 -18.616470 -5.408470 -1.388804 -1.753630 4.399511 -15.762429 15.819342 1.101596 7.978179 
-92.958496 50.747986 30.477474 -3.808661 -0.341042 91.682861 0.000000 0.000000 0.000000 3.517240 1.735009 -4.023988 8.832028 0.267428 -7.364071 -3.683326 -11.839919 -0.429971 -9.676322 2.337552 4.030325 -70.309410 4.445807 17.100283 -38.190163 -11.284873 17.481926 12.222617 10.557855 -2.823310 -0.105730 8.740774 3.521003 59.455559 -13.890824 13.011659 37.636208 8.136776 16.762390 -9.141830 -16.978868 -2.604921 10.934737 4.814301 8.419329 1.582946 -1.963272 28.991920 -10.759059 0.549828 -5.881780 -16.644405 -5.223046 -1.912047 -2.509236 4.480838 -18.351730 15.371593 1.001062 7.473840 
-91.621918 50.557331 30.871738 -3.720798 -0.409292 92.848885 0.000000 0.000000 0.000000 2.482072 2.058615 -4.187834 8.791010 0.149100 -7.924019 -2.605407 -11.856232 -1.215019 -9.452506 2.699496 3.135404 -70.108429 6.605968 17.250193 -37.502728 -11.511135 18.022392 11.832086 10.725741 -2.836984 -0.450847 8.514500 2.622402 60.449966 -16.496677 12.657648 37.213242 8.015026 16.916866 -8.908986 -17.001873 -2.632835 12.574074 5.546369 8.985484 1.601467 -1.904541 26.657290 -11.889610 0.831182 -7.985991 -13.921194 -4.676435 -2.284515 -3.668037 4.264953 -21.840296 14.612317 0.809648 6.467407 
-90.150932 50.507122 31.297592 -3.613293 -0.146193 93.759232 0.000000 0.000000 0.000000 1.505154 2.333180 -4.088755 9.015566 0.235531 -8.183135 -1.791103 -11.974082 -1.825248 -8.931169 3.120117 2.304120 -70.078049 8.357907 17.161180 -35.955780 -11.681822 18.655174 11.497947 11.181701 -2.818791 -0.656199 8.889594 1.784677 61.232037 -19.083654 11.773171 36.000629 7.739131 16.542883 -9.641713 -16.612274 -2.573026 14.901347 6.269395 9.803097 1.238680 -1.803359 24.519598 -12.993436 1.081579 -9.515979 -11.315499 -4.276324 -2.806854 -3.634224 4.089042 -25.246294 13.896317 0.667535 5.554311 
-88.703110 50.572060 31.789516 -4.824259 0.233545 93.388496 0.000000 0.000000 0.000000 0.724143 3.671583 -3.322236 8.869632 0.865389 -7.311123 -0.151603 -12.532775 -2.178850 -7.242774 3.866959 1.682358 -70.049904 9.221354 16.717577 -33.839188 -11.766864 19.300814 11.276143 11.430301 -2.813095 -0.156921 10.771470 1.106800 60.966049 -21.797131 10.103203 35.924656 7.131377 16.274885 -10.155354 -15.816001 -2.571030 17.444782 7.948000 11.468130 0.829999 -1.594161 22.461456 -14.218204 1.356489 -10.867620 -10.031868 -2.703188 -3.035545 -3.091948 4.704425 -26.836906 13.439285 0.588549 5.105535 
-87.412224 50.610184 32.323341 -6.591797 -0.009701 92.442528 0.000000 0.000000 0.000000 -0.284470 5.410090 -2.643889 8.288444 1.813295 -6.034018 0.984267 -13.032456 -2.110517 -5.616987 5.368160 0.848601 -70.978500 10.754248 15.627803 -32.930023 -11.277739 20.074545 11.758874 11.582161 -2.759887 0.596354 12.367716 0.166241 60.551361 -23.939278 8.679502 36.296425 6.813406 14.517307 -8.038457 -16.413179 -2.766490 19.080000 10.058792 13.565473 0.891141 -1.502468 20.777628 -14.988603 1.606521 -12.169926 -11.186479 -0.537258 -2.781687 -0.260260 5.512425 -25.377190 10.786610 0.349030 3.887076 
-86.179451 50.700920 32.849487 -7.343752 -0.038742 91.840927 0.000000 0.000000 0.000000 -0.962752 6.249125 -2.682309 7.685893 2.321310 -5.197201 1.321769 -13.148803 -1.471247 -4.952086 6.627044 0.254968 -72.735138 13.216224 13.759830 -33.079346 -10.189338 20.750549 12.849230 11.640903 -2.676948 0.617079 12.261892 -0.437790 61.134132 -24.588713 7.921206 36.263367 6.648363 14.041942 -7.669869 -16.838348 -2.787438 20.682632 11.269419 14.871093 1.002632 -1.255318 18.299824 -13.307364 1.566410 -13.191822 -11.392269 0.839279 -2.736704 2.346066 5.831357 -24.490349 8.635474 0.203537 3.004565 
-85.003830 50.783978 33.362541 -7.187508 -0.087200 91.895760 0.000000 0.000000 0.000000 -1.571576 6.159810 -3.351295 7.091294 2.623144 -5.000447 0.530951 -12.786454 -0.527652 -5.446583 7.358557 -0.248284 -74.649582 16.286205 11.198773 -34.432526 -9.019991 17.714247 12.992873 11.406487 -2.688469 0.270826 11.818542 -0.969351 61.499760 -24.533785 7.274354 36.244652 6.436763 13.782673 -7.209565 -16.816843 -2.839578 21.704090 11.746889 15.299895 1.461450 -0.867238 14.964876 -10.552963 1.294888 -13.961596 -11.322349 1.365849 -2.885917 5.037425 5.843251 -24.109312 6.836873 0.132641 2.523141 
-83.892136 50.848785 33.847794 -7.158237 0.174411 92.077705 0.000000 0.000000 0.000000 -1.826821 6.119959 -4.052176 6.500755 3.130473 -4.904058 -0.198020 -11.826008 0.186090 -6.166403 8.234180 -0.388224 -76.165100 18.051720 9.770318 -35.127792 -8.774334 11.847443 12.687338 11.345243 -2.711682 -0.244881 12.000422 -1.164518 61.028225 -23.860701 7.329104 36.294170 6.466280 12.907496 -8.265062 -16.086056 -2.761252 22.687706 12.469100 16.146502 2.016499 -0.397711 12.527349 -7.383957 1.002495 -15.112748 -10.376985 1.776651 -3.315684 6.562712 6.190992 -23.231476 5.135361 0.048400 1.915805 
-82.860100 50.833813 34.325497 -7.607898 0.638858 91.975227 0.000000 0.000000 0.000000 -1.838172 6.549392 -4.389165 6.054680 3.786506 -4.750104 -1.026254 -10.632822 0.396523 -6.820925 8.913882 -0.266183 -76.635651 18.487352 10.023275 -34.755253 -9.159879 9.945805 12.198119 11.407970 -2.748263 -0.499275 12.818586 -1.150931 59.842957 -23.248272 7.710964 36.971825 6.495274 12.455376 -9.647189 -15.006877 -2.681889 23.813139 13.534731 17.528290 2.395444 0.041389 10.002756 -3.848845 0.547238 -16.125179 -8.925301 2.792210 -3.409641 7.216671 6.472983 -23.204576 3.631944 0.030432 1.094090 
